HIERARCHY
ROOT hip
{
OFFSET -0.10 95.05 0.06
CHANNELS 6 Xposition Yposition Zposition Zrotation Xrotation Yrotation
JOINT abdomen
{
OFFSET 0 7.23 0
CHANNELS 6 Xposition Yposition Zposition Zrotation Xrotation Yrotation
JOINT chest
{
OFFSET 0 16.54 -0
CHANNELS 6 Xposition Yposition Zposition Zrotation Xrotation Yrotation
JOINT neck
{
OFFSET 0 34.21 -0
CHANNELS 6 Xposition Yposition Zposition Zrotation Xrotation Yrotation
JOINT head
{
OFFSET 0 6.29 0
CHANNELS 6 Xposition Yposition Zposition Zrotation Xrotation Yrotation
End Site
{
OFFSET 0 0 0
}
}
}
JOINT lCollar
{
OFFSET 4.06 26.61 -1.12
CHANNELS 6 Xposition Yposition Zposition Zrotation Xrotation Yrotation
JOINT lShldr
{
OFFSET 14.17 0 0
CHANNELS 6 Xposition Yposition Zposition Zrotation Xrotation Yrotation
JOINT lForeArm
{
OFFSET 26.12 0 0
CHANNELS 6 Xposition Yposition Zposition Zrotation Xrotation Yrotation
JOINT lHand
{
OFFSET 27.71 0 0
CHANNELS 6 Xposition Yposition Zposition Zrotation Xrotation Yrotation
JOINT lThumb1
{
OFFSET 2.29 -0.46 1.83
CHANNELS 6 Xposition Yposition Zposition Zrotation Xrotation Yrotation
JOINT lThumb2
{
OFFSET 5.29 0 0
CHANNELS 6 Xposition Yposition Zposition Zrotation Xrotation Yrotation
JOINT lThumb3
{
OFFSET 3.01 0 0
CHANNELS 6 Xposition Yposition Zposition Zrotation Xrotation Yrotation
End Site
{
OFFSET 0 0 0
}
}
}
}
JOINT lIndex1
{
OFFSET 9.37 0.29 2.59
CHANNELS 6 Xposition Yposition Zposition Zrotation Xrotation Yrotation
JOINT lIndex2
{
OFFSET 4.34 0 0
CHANNELS 6 Xposition Yposition Zposition Zrotation Xrotation Yrotation
JOINT lIndex3
{
OFFSET 2.16 0 0
CHANNELS 6 Xposition Yposition Zposition Zrotation Xrotation Yrotation
End Site
{
OFFSET 0 0 0
}
}
}
}
JOINT lMid1
{
OFFSET 9.47 0.83 0.29
CHANNELS 6 Xposition Yposition Zposition Zrotation Xrotation Yrotation
JOINT lMid2
{
OFFSET 4.77 0 0
CHANNELS 6 Xposition Yposition Zposition Zrotation Xrotation Yrotation
JOINT lMid3
{
OFFSET 2.87 0 0
CHANNELS 6 Xposition Yposition Zposition Zrotation Xrotation Yrotation
End Site
{
OFFSET 0 0 0
}
}
}
}
JOINT lRing1
{
OFFSET 8.65 1.01 -1.70
CHANNELS 6 Xposition Yposition Zposition Zrotation Xrotation Yrotation
JOINT lRing2
{
OFFSET 4.54 0 0
CHANNELS 6 Xposition Yposition Zposition Zrotation Xrotation Yrotation
JOINT lRing3
{
OFFSET 2.50 0 0
CHANNELS 6 Xposition Yposition Zposition Zrotation Xrotation Yrotation
End Site
{
OFFSET 0 0 0
}
}
}
}
JOINT lPinky1
{
OFFSET 7.69 0.66 -3.90
CHANNELS 6 Xposition Yposition Zposition Zrotation Xrotation Yrotation
JOINT lPinky2
{
OFFSET 3.21 0 0
CHANNELS 6 Xposition Yposition Zposition Zrotation Xrotation Yrotation
JOINT lPinky3
{
OFFSET 1.92 0 0
CHANNELS 6 Xposition Yposition Zposition Zrotation Xrotation Yrotation
End Site
{
OFFSET 0 0 0
}
}
}
}
}
}
}
}
JOINT rCollar
{
OFFSET -4.06 26.61 -1.12
CHANNELS 6 Xposition Yposition Zposition Zrotation Xrotation Yrotation
JOINT rShldr
{
OFFSET -14.17 0 0
CHANNELS 6 Xposition Yposition Zposition Zrotation Xrotation Yrotation
JOINT rForeArm
{
OFFSET -26.12 0 0
CHANNELS 6 Xposition Yposition Zposition Zrotation Xrotation Yrotation
JOINT rHand
{
OFFSET -27.71 0 0
CHANNELS 6 Xposition Yposition Zposition Zrotation Xrotation Yrotation
JOINT rThumb1
{
OFFSET -2.29 -0.46 1.83
CHANNELS 6 Xposition Yposition Zposition Zrotation Xrotation Yrotation
JOINT rThumb2
{
OFFSET -5.29 0 0
CHANNELS 6 Xposition Yposition Zposition Zrotation Xrotation Yrotation
JOINT rThumb3
{
OFFSET -3.01 0 0
CHANNELS 6 Xposition Yposition Zposition Zrotation Xrotation Yrotation
End Site
{
OFFSET 0 0 0
}
}
}
}
JOINT rIndex1
{
OFFSET -9.37 0.29 2.59
CHANNELS 6 Xposition Yposition Zposition Zrotation Xrotation Yrotation
JOINT rIndex2
{
OFFSET -4.34 0 0
CHANNELS 6 Xposition Yposition Zposition Zrotation Xrotation Yrotation
JOINT rIndex3
{
OFFSET -2.16 0 0
CHANNELS 6 Xposition Yposition Zposition Zrotation Xrotation Yrotation
End Site
{
OFFSET 0 0 0
}
}
}
}
JOINT rMid1
{
OFFSET -9.47 0.83 0.29
CHANNELS 6 Xposition Yposition Zposition Zrotation Xrotation Yrotation
JOINT rMid2
{
OFFSET -4.77 0 0
CHANNELS 6 Xposition Yposition Zposition Zrotation Xrotation Yrotation
JOINT rMid3
{
OFFSET -2.87 0 0
CHANNELS 6 Xposition Yposition Zposition Zrotation Xrotation Yrotation
End Site
{
OFFSET 0 0 0
}
}
}
}
JOINT rRing1
{
OFFSET -8.65 1.01 -1.70
CHANNELS 6 Xposition Yposition Zposition Zrotation Xrotation Yrotation
JOINT rRing2
{
OFFSET -4.54 0 0
CHANNELS 6 Xposition Yposition Zposition Zrotation Xrotation Yrotation
JOINT rRing3
{
OFFSET -2.50 0 0
CHANNELS 6 Xposition Yposition Zposition Zrotation Xrotation Yrotation
End Site
{
OFFSET 0 0 0
}
}
}
}
JOINT rPinky1
{
OFFSET -7.69 0.66 -3.90
CHANNELS 6 Xposition Yposition Zposition Zrotation Xrotation Yrotation
JOINT rPinky2
{
OFFSET -3.21 0 0
CHANNELS 6 Xposition Yposition Zposition Zrotation Xrotation Yrotation
JOINT rPinky3
{
OFFSET -1.92 0 0
CHANNELS 6 Xposition Yposition Zposition Zrotation Xrotation Yrotation
End Site
{
OFFSET 0 0 0
}
}
}
}
}
}
}
}
}
}
JOINT lThigh
{
OFFSET 8.73 -0 0
CHANNELS 6 Xposition Yposition Zposition Zrotation Xrotation Yrotation
JOINT lShin
{
OFFSET 0 -46.66 0
CHANNELS 6 Xposition Yposition Zposition Zrotation Xrotation Yrotation
JOINT lFoot
{
OFFSET 0 -40.14 0
CHANNELS 6 Xposition Yposition Zposition Zrotation Xrotation Yrotation
JOINT lToes
{
OFFSET 0 -8.88 14.22
CHANNELS 6 Xposition Yposition Zposition Zrotation Xrotation Yrotation
End Site
{
OFFSET 0 0 0
}
}
}
}
}
JOINT rThigh
{
OFFSET -8.73 0 -0
CHANNELS 6 Xposition Yposition Zposition Zrotation Xrotation Yrotation
JOINT rShin
{
OFFSET 0 -46.66 0
CHANNELS 6 Xposition Yposition Zposition Zrotation Xrotation Yrotation
JOINT rFoot
{
OFFSET 0 -40.14 0
CHANNELS 6 Xposition Yposition Zposition Zrotation Xrotation Yrotation
JOINT rToes
{
OFFSET 0 -8.88 14.22
CHANNELS 6 Xposition Yposition Zposition Zrotation Xrotation Yrotation
End Site
{
OFFSET 0 0 0
}
}
}
}
}
}
MOTION
Frames: 7
Frame Time: 0.03
-0.33 94.97 -0.10 -1.53 0.46 -36.54 0 7.23 0 4.38 -1.35 -0.48 0 16.54 -0 -1.66 3.32 -2.69 0 34.21 -0 -0.84 26.11 1.27 0 6.29 0 -2.82 -24.24 44.26 4.06 26.61 -1.12 -7.26 -5.16 4.42 14.17 0 0 -69.24 38.13 3.30 26.12 0 0 -0 0 -85.21 27.71 0 0 -23.81 -2.90 -11.61 2.29 -0.46 1.83 60.55 59.81 -94.87 5.29 0 0 -31.62 1.78 13.52 3.01 0 0 -9.29 4.86 11.98 9.37 0.29 2.59 -14.84 3.00 -1.79 4.34 0 0 -17.05 2.95 12.80 2.16 0 0 -39.58 -1.85 3.38 9.47 0.83 0.29 -17.74 -8.38 1.16 4.77 0 0 -25.26 1.27 15.79 2.87 0 0 -42.85 -5.38 11.90 8.65 1.01 -1.70 -25.51 -10.38 2.28 4.54 0 0 -23.47 0.26 7.66 2.50 0 0 -24.24 -1.28 4.61 7.69 0.66 -3.90 -12.73 -8.19 -2.12 3.21 0 0 -51.14 -7.95 12.29 1.92 0 0 -72.20 -16.64 20.97 -4.06 26.61 -1.12 7.93 -5.02 -3.00 -14.17 0 0 48.24 2.45 44.58 -26.12 0 0 0 0 109.85 -27.71 0 0 -25.78 9.07 -6.76 -2.29 -0.46 1.83 -58.05 34.86 97.98 -5.29 0 0 3.13 -12.29 -11.73 -3.01 0 0 49.17 21.55 -13.56 -9.37 0.29 2.59 44.26 -16.28 -19.27 -4.34 0 0 39.43 1.04 -17.18 -2.16 0 0 32.42 -1.98 -6.38 -9.47 0.83 0.29 71.81 -24.27 -17.64 -4.77 0 0 87.27 -15.40 -16.24 -2.87 0 0 44.78 -4.46 -12.79 -8.65 1.01 -1.70 72.40 -20.74 -15.78 -4.54 0 0 80.31 -7.53 -8.92 -2.50 0 0 47.93 -2.94 -7.77 -7.69 0.66 -3.90 85.69 -30.71 -4.49 -3.21 0 0 73.39 -11.48 -8.29 -1.92 0 0 39.93 -4.93 -15.33 8.73 -0 0 11.13 1.02 39.79 0 -46.66 0 0 21.92 0 0 -40.14 0 -11.45 -16.02 14.20 0 -8.88 14.22 0 0 0 -8.73 0 -0 -3.87 -10.99 -11.33 0 -46.66 0 0 22.32 0 0 -40.14 0 1.83 -10.98 0.12 0 -8.88 14.22 0 0 0 
-0.34 95.00 -0.09 -1.51 0.49 -36.55 0 7.23 0 4.38 -1.40 -0.48 0 16.54 -0 -1.58 3.14 -2.72 0 34.21 -0 -0.84 26.15 1.27 0 6.29 0 -2.85 -24.16 44.23 4.06 26.61 -1.12 -7.10 -5.15 4.47 14.17 0 0 -69.42 38.23 3.29 26.12 0 0 -0 0 -85.19 27.71 0 0 -23.84 -3.07 -11.64 2.29 -0.46 1.83 60.55 59.81 -94.87 5.29 0 0 -31.62 1.78 13.52 3.01 0 0 -9.29 4.86 11.98 9.37 0.29 2.59 -14.84 3.00 -1.79 4.34 0 0 -17.05 2.95 12.80 2.16 0 0 -39.58 -1.85 3.38 9.47 0.83 0.29 -17.74 -8.47 1.14 4.77 0 0 -25.26 1.27 15.79 2.87 0 0 -42.85 -5.38 11.90 8.65 1.01 -1.70 -25.51 -10.38 2.28 4.54 0 0 -23.47 0.26 7.66 2.50 0 0 -24.24 -1.28 4.61 7.69 0.66 -3.90 -12.73 -8.19 -2.12 3.21 0 0 -51.14 -7.95 12.29 1.92 0 0 -72.20 -16.64 20.97 -4.06 26.61 -1.12 7.62 -5.01 -3.08 -14.17 0 0 48.34 2.67 44.57 -26.12 0 0 0 0 109.92 -27.71 0 0 -25.81 8.83 -6.91 -2.29 -0.46 1.83 -58.05 34.86 97.98 -5.29 0 0 3.13 -12.29 -11.73 -3.01 0 0 49.17 21.55 -13.56 -9.37 0.29 2.59 44.26 -16.28 -19.27 -4.34 0 0 39.43 1.04 -17.18 -2.16 0 0 32.42 -1.98 -6.38 -9.47 0.83 0.29 71.81 -24.27 -17.64 -4.77 0 0 87.27 -15.40 -16.24 -2.87 0 0 44.78 -4.46 -12.79 -8.65 1.01 -1.70 72.40 -20.74 -15.78 -4.54 0 0 80.31 -7.53 -8.92 -2.50 0 0 47.93 -2.94 -7.77 -7.69 0.66 -3.90 85.69 -30.71 -4.49 -3.21 0 0 73.39 -11.48 -8.29 -1.92 0 0 39.93 -4.93 -15.33 8.73 -0 0 11.09 1.06 39.84 0 -46.66 0 0 21.77 0 0 -40.14 0 -11.46 -15.99 14.19 0 -8.88 14.22 0 0 0 -8.73 0 -0 -3.87 -10.97 -11.34 0 -46.66 0 0 22.23 0 0 -40.14 0 1.88 -10.96 0.15 0 -8.88 14.22 0 0 0 
-0.35 95.02 -0.07 -1.48 0.53 -36.56 0 7.23 0 4.38 -1.45 -0.48 0 16.54 -0 -1.51 2.96 -2.75 0 34.21 -0 -0.83 26.20 1.26 0 6.29 0 -2.88 -24.09 44.19 4.06 26.61 -1.12 -6.95 -5.14 4.52 14.17 0 0 -69.65 38.29 3.34 26.12 0 0 -0 0 -85.19 27.71 0 0 -23.90 -3.19 -11.63 2.29 -0.46 1.83 60.55 59.81 -94.87 5.29 0 0 -31.62 1.78 13.52 3.01 0 0 -9.29 4.86 11.98 9.37 0.29 2.59 -14.84 3.00 -1.79 4.34 0 0 -17.05 2.95 12.80 2.16 0 0 -39.58 -1.85 3.38 9.47 0.83 0.29 -17.73 -8.55 1.13 4.77 0 0 -25.26 1.27 15.79 2.87 0 0 -42.85 -5.38 11.90 8.65 1.01 -1.70 -25.51 -10.38 2.28 4.54 0 0 -23.47 0.26 7.66 2.50 0 0 -24.24 -1.28 4.61 7.69 0.66 -3.90 -12.73 -8.19 -2.12 3.21 0 0 -51.14 -7.95 12.29 1.92 0 0 -72.20 -16.64 20.97 -4.06 26.61 -1.12 7.32 -5.00 -3.16 -14.17 0 0 48.44 2.87 44.55 -26.12 0 0 0 0 109.99 -27.71 0 0 -25.82 8.63 -7.04 -2.29 -0.46 1.83 -58.05 34.86 97.98 -5.29 0 0 3.13 -12.29 -11.73 -3.01 0 0 49.17 21.55 -13.56 -9.37 0.29 2.59 44.26 -16.28 -19.27 -4.34 0 0 39.43 1.04 -17.18 -2.16 0 0 32.42 -1.98 -6.38 -9.47 0.83 0.29 71.81 -24.27 -17.64 -4.77 0 0 87.27 -15.40 -16.24 -2.87 0 0 44.78 -4.46 -12.79 -8.65 1.01 -1.70 72.40 -20.74 -15.78 -4.54 0 0 80.31 -7.53 -8.92 -2.50 0 0 47.93 -2.94 -7.77 -7.69 0.66 -3.90 85.69 -30.71 -4.49 -3.21 0 0 73.39 -11.48 -8.29 -1.92 0 0 39.93 -4.93 -15.33 8.73 -0 0 11.04 1.10 39.89 0 -46.66 0 0 21.61 0 0 -40.14 0 -11.46 -15.96 14.18 0 -8.88 14.22 0 0 0 -8.73 0 -0 -3.87 -10.95 -11.35 0 -46.66 0 0 22.13 0 0 -40.14 0 1.93 -10.94 0.19 0 -8.88 14.22 0 0 0 
-0.36 95.04 -0.06 -1.45 0.57 -36.57 0 7.23 0 4.38 -1.50 -0.48 0 16.54 -0 -1.43 2.78 -2.78 0 34.21 -0 -0.83 26.24 1.26 0 6.29 0 -2.91 -24.02 44.15 4.06 26.61 -1.12 -6.80 -5.14 4.57 14.17 0 0 -69.92 38.30 3.45 26.12 0 0 -0 0 -85.21 27.71 0 0 -24.00 -3.29 -11.60 2.29 -0.46 1.83 60.55 59.81 -94.87 5.29 0 0 -31.62 1.78 13.52 3.01 0 0 -9.29 4.86 11.98 9.37 0.29 2.59 -14.84 3.00 -1.79 4.34 0 0 -17.05 2.95 12.80 2.16 0 0 -39.58 -1.85 3.38 9.47 0.83 0.29 -17.73 -8.64 1.11 4.77 0 0 -25.26 1.27 15.79 2.87 0 0 -42.85 -5.38 11.90 8.65 1.01 -1.70 -25.51 -10.38 2.28 4.54 0 0 -23.47 0.26 7.66 2.50 0 0 -24.24 -1.28 4.61 7.69 0.66 -3.90 -12.73 -8.19 -2.12 3.21 0 0 -51.14 -7.95 12.29 1.92 0 0 -72.20 -16.64 20.97 -4.06 26.61 -1.12 7.05 -4.99 -3.24 -14.17 0 0 48.55 3.04 44.53 -26.12 0 0 0 0 110.05 -27.71 0 0 -25.81 8.47 -7.14 -2.29 -0.46 1.83 -58.05 34.86 97.98 -5.29 0 0 3.13 -12.29 -11.73 -3.01 0 0 49.17 21.55 -13.56 -9.37 0.29 2.59 44.26 -16.28 -19.27 -4.34 0 0 39.43 1.04 -17.18 -2.16 0 0 32.42 -1.98 -6.38 -9.47 0.83 0.29 71.81 -24.27 -17.64 -4.77 0 0 87.27 -15.40 -16.24 -2.87 0 0 44.78 -4.46 -12.79 -8.65 1.01 -1.70 72.40 -20.74 -15.78 -4.54 0 0 80.31 -7.53 -8.92 -2.50 0 0 47.93 -2.94 -7.77 -7.69 0.66 -3.90 85.69 -30.71 -4.49 -3.21 0 0 73.39 -11.48 -8.29 -1.92 0 0 39.93 -4.93 -15.33 8.73 -0 0 10.99 1.13 39.94 0 -46.66 0 0 21.46 0 0 -40.14 0 -11.46 -15.92 14.18 0 -8.88 14.22 0 0 0 -8.73 0 -0 -3.87 -10.93 -11.36 0 -46.66 0 0 22.03 0 0 -40.14 0 1.99 -10.92 0.22 0 -8.88 14.22 0 0 0 
-0.36 95.07 -0.04 -1.42 0.61 -36.58 0 7.23 0 4.38 -1.55 -0.47 0 16.54 -0 -1.36 2.60 -2.80 0 34.21 -0 -0.82 26.29 1.26 0 6.29 0 -2.94 -23.96 44.11 4.06 26.61 -1.12 -6.65 -5.13 4.62 14.17 0 0 -70.22 38.30 3.59 26.12 0 0 -0 0 -85.24 27.71 0 0 -24.11 -3.36 -11.55 2.29 -0.46 1.83 60.55 59.81 -94.87 5.29 0 0 -31.62 1.78 13.52 3.01 0 0 -9.29 4.86 11.98 9.37 0.29 2.59 -14.84 3.00 -1.79 4.34 0 0 -17.05 2.95 12.80 2.16 0 0 -39.58 -1.85 3.38 9.47 0.83 0.29 -17.73 -8.72 1.10 4.77 0 0 -25.26 1.27 15.79 2.87 0 0 -42.85 -5.38 11.90 8.65 1.01 -1.70 -25.51 -10.38 2.28 4.54 0 0 -23.47 0.26 7.66 2.50 0 0 -24.24 -1.28 4.61 7.69 0.66 -3.90 -12.73 -8.19 -2.12 3.21 0 0 -51.14 -7.95 12.29 1.92 0 0 -72.20 -16.64 20.97 -4.06 26.61 -1.12 6.79 -4.98 -3.32 -14.17 0 0 48.68 3.19 44.49 -26.12 0 0 0 0 110.12 -27.71 0 0 -25.77 8.36 -7.23 -2.29 -0.46 1.83 -58.05 34.86 97.98 -5.29 0 0 3.13 -12.29 -11.73 -3.01 0 0 49.17 21.55 -13.56 -9.37 0.29 2.59 44.26 -16.28 -19.27 -4.34 0 0 39.43 1.04 -17.18 -2.16 0 0 32.42 -1.98 -6.38 -9.47 0.83 0.29 71.81 -24.27 -17.64 -4.77 0 0 87.27 -15.40 -16.24 -2.87 0 0 44.78 -4.46 -12.79 -8.65 1.01 -1.70 72.40 -20.74 -15.78 -4.54 0 0 80.31 -7.53 -8.92 -2.50 0 0 47.93 -2.94 -7.77 -7.69 0.66 -3.90 85.69 -30.71 -4.49 -3.21 0 0 73.39 -11.48 -8.29 -1.92 0 0 39.93 -4.93 -15.33 8.73 -0 0 10.94 1.17 40 0 -46.66 0 0 21.29 0 0 -40.14 0 -11.46 -15.88 14.17 0 -8.88 14.22 0 0 0 -8.73 0 -0 -3.87 -10.91 -11.37 0 -46.66 0 0 21.93 0 0 -40.14 0 2.04 -10.90 0.25 0 -8.88 14.22 0 0 0 
-0.37 95.09 -0.02 -1.39 0.65 -36.59 0 7.23 0 4.38 -1.60 -0.47 0 16.54 -0 -1.28 2.43 -2.83 0 34.21 -0 -0.82 26.33 1.26 0 6.29 0 -2.96 -23.90 44.06 4.06 26.61 -1.12 -6.52 -5.12 4.67 14.17 0 0 -70.51 38.29 3.72 26.12 0 0 -0 0 -85.27 27.71 0 0 -24.22 -3.44 -11.51 2.29 -0.46 1.83 60.55 59.81 -94.87 5.29 0 0 -31.62 1.78 13.52 3.01 0 0 -9.29 4.86 11.98 9.37 0.29 2.59 -14.84 3.00 -1.79 4.34 0 0 -17.05 2.95 12.80 2.16 0 0 -39.58 -1.85 3.38 9.47 0.83 0.29 -17.73 -8.81 1.08 4.77 0 0 -25.26 1.27 15.79 2.87 0 0 -42.85 -5.38 11.90 8.65 1.01 -1.70 -25.51 -10.38 2.28 4.54 0 0 -23.47 0.26 7.66 2.50 0 0 -24.24 -1.28 4.61 7.69 0.66 -3.90 -12.73 -8.19 -2.12 3.21 0 0 -51.14 -7.95 12.29 1.92 0 0 -72.20 -16.64 20.97 -4.06 26.61 -1.12 6.53 -4.98 -3.40 -14.17 0 0 48.81 3.32 44.44 -26.12 0 0 0 0 110.19 -27.71 0 0 -25.71 8.29 -7.31 -2.29 -0.46 1.83 -58.05 34.86 97.98 -5.29 0 0 3.13 -12.29 -11.73 -3.01 0 0 49.17 21.55 -13.56 -9.37 0.29 2.59 44.26 -16.28 -19.27 -4.34 0 0 39.43 1.04 -17.18 -2.16 0 0 32.42 -1.98 -6.38 -9.47 0.83 0.29 71.81 -24.27 -17.64 -4.77 0 0 87.27 -15.40 -16.24 -2.87 0 0 44.78 -4.46 -12.79 -8.65 1.01 -1.70 72.40 -20.74 -15.78 -4.54 0 0 80.31 -7.53 -8.92 -2.50 0 0 47.93 -2.94 -7.77 -7.69 0.66 -3.90 85.69 -30.71 -4.49 -3.21 0 0 73.39 -11.48 -8.29 -1.92 0 0 39.93 -4.93 -15.33 8.73 -0 0 10.89 1.22 40.05 0 -46.66 0 0 21.12 0 0 -40.14 0 -11.46 -15.84 14.16 0 -8.88 14.22 0 0 0 -8.73 0 -0 -3.87 -10.89 -11.38 0 -46.66 0 0 21.82 0 0 -40.14 0 2.09 -10.87 0.29 0 -8.88 14.22 0 0 0 
-0.38 95.11 -0.01 -1.36 0.68 -36.60 0 7.23 0 4.38 -1.66 -0.47 0 16.54 -0 -1.21 2.25 -2.86 0 34.21 -0 -0.82 26.37 1.26 0 6.29 0 -2.99 -23.85 44.01 4.06 26.61 -1.12 -6.39 -5.12 4.72 14.17 0 0 -70.78 38.29 3.82 26.12 0 0 -0 0 -85.29 27.71 0 0 -24.32 -3.52 -11.48 2.29 -0.46 1.83 60.55 59.81 -94.87 5.29 0 0 -31.62 1.78 13.52 3.01 0 0 -9.29 4.86 11.98 9.37 0.29 2.59 -14.84 3.00 -1.79 4.34 0 0 -17.05 2.95 12.80 2.16 0 0 -39.58 -1.85 3.38 9.47 0.83 0.29 -17.73 -8.89 1.07 4.77 0 0 -25.26 1.27 15.79 2.87 0 0 -42.85 -5.38 11.90 8.65 1.01 -1.70 -25.51 -10.38 2.28 4.54 0 0 -23.47 0.26 7.66 2.50 0 0 -24.24 -1.28 4.61 7.69 0.66 -3.90 -12.73 -8.19 -2.12 3.21 0 0 -51.14 -7.95 12.29 1.92 0 0 -72.20 -16.64 20.97 -4.06 26.61 -1.12 6.29 -4.97 -3.48 -14.17 0 0 48.95 3.44 44.39 -26.12 0 0 0 0 110.26 -27.71 0 0 -25.64 8.23 -7.38 -2.29 -0.46 1.83 -58.05 34.86 97.98 -5.29 0 0 3.13 -12.29 -11.73 -3.01 0 0 49.17 21.55 -13.56 -9.37 0.29 2.59 44.26 -16.28 -19.27 -4.34 0 0 39.43 1.04 -17.18 -2.16 0 0 32.42 -1.98 -6.38 -9.47 0.83 0.29 71.81 -24.27 -17.64 -4.77 0 0 87.27 -15.40 -16.24 -2.87 0 0 44.78 -4.46 -12.79 -8.65 1.01 -1.70 72.40 -20.74 -15.78 -4.54 0 0 80.31 -7.53 -8.92 -2.50 0 0 47.93 -2.94 -7.77 -7.69 0.66 -3.90 85.69 -30.71 -4.49 -3.21 0 0 73.39 -11.48 -8.29 -1.92 0 0 39.93 -4.93 -15.33 8.73 -0 0 10.82 1.27 40.10 0 -46.66 0 0 20.91 0 0 -40.14 0 -11.46 -15.76 14.16 0 -8.88 14.22 0 0 0 -8.73 0 -0 -3.86 -10.85 -11.39 0 -46.66 0 0 21.66 0 0 -40.14 0 2.13 -10.80 0.32 0 -8.88 14.22 0 0 0 
